<?xml version="1.0" encoding="utf-8"?>
<!-- Generator: Adobe Illustrator 18.0.0, SVG Export Plug-In . SVG Version: 6.00 Build 0)  -->
<!DOCTYPE svg PUBLIC "-//W3C//DTD SVG 1.1//EN" "http://www.w3.org/Graphics/SVG/1.1/DTD/svg11.dtd">
<svg version="1.1" id="Layer_1" xmlns="http://www.w3.org/2000/svg" xmlns:xlink="http://www.w3.org/1999/xlink" x="0px" y="0px"
   viewBox="0 0 142 48" enable-background="new 0 0 142 48" xml:space="preserve">
<g>
  <path fill="#B9D9EB" d="M23.2,6.4c9.8,0,17.6,7.9,17.6,17.6S33,41.6,23.2,41.6S5.6,33.8,5.6,24S13.5,6.4,23.2,6.4L23.2,6.4
    L23.2,6.4z M23.2,0.7C17,0.7,11.2,3.1,6.8,7.5S0,17.8,0,24s2.4,12.1,6.8,16.5s10.2,6.8,16.5,6.8s12.1-2.4,16.5-6.8
    c4.4-4.4,6.8-10.2,6.8-16.5s-2.4-12.1-6.8-16.5C35.3,3.1,29.4,0.7,23.2,0.7L23.2,0.7L23.2,0.7z"/>
  <g transform="translate(12.400000, 10.000000)">
    <path id="Shape" fill="#382E2C" d="M18.9,7.9V2.3H7.7L2,8v5.7h5.7V7.9H18.9L18.9,7.9z"/>
    <path id="Shape_1_" fill="#382E2C" d="M2,25h5.7v-5.7h11.2v-5.7H7.7L2,19.4V25L2,25z"/>
  </g>
</g>
<g transform="translate(59.600000, 10.000000)">
  <path fill="#382E2C" d="M9.8,22.7v-20h12.2v2.6h-9.4v6.4h8.5v2.6h-8.5v8.4L9.8,22.7L9.8,22.7L9.8,22.7z"/>
  <path fill="#382E2C" d="M25.8,28.4l3.4-7.2L23.3,9.1h3l4.2,9.4l4.1-9.4h2.8l-8.8,19.2H25.8L25.8,28.4z"/>
  <path fill="#382E2C" d="M40.1,22.7V2.3h2.6v8.8c0.7-1.2,2.2-2.3,4.5-2.3c4.1,0,6.2,3.2,6.2,7.1c0,4-2.3,7.2-6.3,7.2
    c-2,0-3.6-0.9-4.4-2.4v2H40.1L40.1,22.7z M46.7,11.1c-2.3,0-4,1.8-4,4.8s1.7,4.8,4,4.8c2.4,0,4-1.9,4-4.8S49.1,11.1,46.7,11.1
    L46.7,11.1L46.7,11.1z"/>
  <path fill="#382E2C" d="M69.1,18.8c-0.8,2.4-2.9,4.3-6.1,4.3c-3.6,0-6.8-2.7-6.8-7.2c0-4.3,3.1-7.2,6.5-7.2c4.2,0,6.5,2.9,6.5,7.1
    c0,0.3,0,0.7-0.1,0.8H59c0.1,2.4,1.8,4.1,4.1,4.1c2.2,0,3.3-1.2,3.8-2.7L69.1,18.8L69.1,18.8z M66.5,14.5c0-2-1.3-3.5-3.7-3.5
    c-2.2,0-3.6,1.7-3.7,3.5H66.5L66.5,14.5z"/>
  <path fill="#382E2C" d="M80.1,11.8c-0.4,0-0.8-0.1-1.2-0.1c-2.2,0-3.7,1.2-3.7,4.2v6.8h-2.7V9.1h2.6v2.4c1-2.1,2.7-2.6,4.1-2.6
    c0.4,0,0.7,0,0.9,0.1V11.8L80.1,11.8z"/>
</g>
</svg>