<?xml version="1.0" encoding="UTF-8" standalone="no"?>
<svg width="149px" height="26px" viewBox="0 0 149 26" version="1.1" xmlns="http://www.w3.org/2000/svg" xmlns:xlink="http://www.w3.org/1999/xlink" xmlns:sketch="http://www.bohemiancoding.com/sketch/ns">
    <!-- Generator: Sketch 3.3.2 (12043) - http://www.bohemiancoding.com/sketch -->
    <title>countour copy 2 + swift.berlin</title>
    <desc>Created with Sketch.</desc>
    <defs>
        <linearGradient x1="48.3081043%" y1="100%" x2="48.3081043%" y2="0%" id="linearGradient-1">
            <stop stop-color="#FBAD3F" offset="0%"></stop>
            <stop stop-color="#FF3727" offset="100%"></stop>
        </linearGradient>
    </defs>
    <g id="Page-1" stroke="none" stroke-width="1" fill="none" fill-rule="evenodd" sketch:type="MSPage">
        <g id="Artboard" sketch:type="MSArtboardGroup" transform="translate(-243.000000, -135.000000)">
            <g id="Screenshot-2015-06-15-12.08.46-+-swift.berlin-+-countour-copy-2" sketch:type="MSLayerGroup" transform="translate(8.000000, 6.000000)">
                <g id="countour-copy-2-+-swift.berlin" transform="translate(235.000000, 129.000000)" sketch:type="MSShapeGroup">
                    <path d="M17.5645366,-0.0148411792 C29.6749396,7.82130191 25.9720647,17.6758455 25.9720647,17.6758455 C25.9720647,17.6758455 27.2780885,19.1599635 27.9311005,21.0002698 C28.5841124,22.8405762 28.5769171,25.0964355 28.4581877,25.1558003 C28.3394583,25.215165 26.8086136,22.6031173 24.1317584,22.6031173 C21.4549032,22.6031173 20.0949565,25.1558003 15.3457797,25.1558003 C4.65254476,25.1558003 0.0148411801,16.3846631 0.0148411801,16.3846631 C0.0148411801,16.3846631 4.71949527,19.7536107 9.6467675,19.6348813 C14.5740397,19.5161518 15.939427,18.0913985 15.939427,18.0913985 C15.939427,18.0913985 13.7362783,16.2478807 9.94359067,12.5407972 C6.15090301,8.83371369 2.58236534,3.7251362 2.58236534,3.7251362 C2.58236534,3.7251362 8.29959068,8.2563188 10.1334177,9.58920275 C11.9672447,10.9220867 13.8010717,12.1300128 13.8010717,12.1300128 C13.8010717,12.1300128 12.0250333,10.2139925 10.7746968,8.67284542 C9.52436016,7.13169835 6.32234272,2.47847708 6.32234272,2.47847708 C6.32234272,2.47847708 11.2333286,6.91234046 13.4676486,8.67284503 C15.7019685,10.4333496 19.9762284,13.4015856 19.9762284,13.4015856 C19.9762284,13.4015856 22.5511732,7.52447831 17.5645366,-0.0148411792 Z" id="countour-copy-2" fill="url(#linearGradient-1)"></path>
                    <path d="M38.3526316,21.1421053 C39.2052632,21.6157895 40.4605263,21.9473684 41.8578947,21.9473684 C44.9131579,21.9473684 46.5473684,20.4315789 46.5473684,18.3236842 C46.5236842,16.6184211 45.5763158,15.5526316 43.4684211,14.8184211 C42,14.2736842 41.4552632,13.9421053 41.4552632,13.2078947 C41.4552632,12.4973684 42.0236842,11.9763158 43.0657895,11.9763158 C44.0842105,11.9763158 45.0315789,12.3552632 45.5052632,12.6394737 L46.0973684,10.6026316 C45.4105263,10.2236842 44.2973684,9.91578947 43.0184211,9.91578947 C40.3421053,9.91578947 38.6605263,11.4789474 38.6605263,13.5157895 C38.6605263,14.8894737 39.5842105,16.1210526 41.8342105,16.8789474 C43.2552632,17.4 43.7289474,17.7789474 43.7289474,18.5605263 C43.7289474,19.3184211 43.1605263,19.8631579 41.8815789,19.8631579 C40.8394737,19.8631579 39.5842105,19.4131579 38.9447368,19.0105263 L38.3526316,21.1421053 Z M47.9546053,10.1763158 L51.3651316,21.7105263 L54.0888158,21.7105263 L55.5572368,17.0210526 C55.8888158,15.8842105 56.1730263,14.7473684 56.4335526,13.3263158 L56.4809211,13.3263158 C56.7414474,14.7236842 57.0019737,15.8131579 57.3572368,17.0210526 L58.7309211,21.7105263 L61.4309211,21.7105263 L65.0546053,10.1763158 L62.1888158,10.1763158 L60.9098684,15.2921053 C60.6019737,16.6421053 60.3177632,17.8973684 60.1519737,19.1526316 L60.1046053,19.1526316 C59.8440789,17.8973684 59.5361842,16.6421053 59.1809211,15.2921053 L57.7361842,10.1763158 L55.3677632,10.1763158 L53.8519737,15.4342105 C53.5440789,16.6184211 53.1651316,17.8973684 52.9282895,19.1526316 L52.8809211,19.1526316 C52.6677632,17.8973684 52.4072368,16.6421053 52.1230263,15.4105263 L50.9388158,10.1763158 L47.9546053,10.1763158 Z M70.0855263,21.7105263 L70.0855263,10.1763158 L67.1723684,10.1763158 L67.1723684,21.7105263 L70.0855263,21.7105263 Z M68.6407895,5.36842105 C67.6697368,5.36842105 67.0065789,6.05526316 67.0065789,6.95526316 C67.0065789,7.80789474 67.6460526,8.51842105 68.6171053,8.51842105 C69.6355263,8.51842105 70.275,7.80789474 70.275,6.95526316 C70.2513158,6.05526316 69.6355263,5.36842105 68.6407895,5.36842105 L68.6407895,5.36842105 Z M76.7269737,21.7105263 L76.7269737,12.3552632 L79.2138158,12.3552632 L79.2138158,10.1763158 L76.7032895,10.1763158 L76.7032895,9.58421053 C76.7032895,8.16315789 77.1769737,6.95526316 78.6217105,6.95526316 C79.1664474,6.95526316 79.5453947,7.05 79.8769737,7.16842105 L80.0664474,4.91842105 C79.6164474,4.77631579 79.0006579,4.63421053 78.2190789,4.63421053 C77.2006579,4.63421053 76.0638158,4.94210526 75.2111842,5.74736842 C74.2164474,6.69473684 73.8138158,8.18684211 73.8138158,9.67894737 L73.8138158,10.1763158 L72.2506579,10.1763158 L72.2506579,12.3552632 L73.8138158,12.3552632 L73.8138158,21.7105263 L76.7269737,21.7105263 Z M82.0657895,8.02105263 L82.0657895,10.1763158 L80.4315789,10.1763158 L80.4315789,12.3552632 L82.0657895,12.3552632 L82.0657895,17.7789474 C82.0657895,19.2947368 82.35,20.3605263 82.9894737,21.0236842 C83.5342105,21.6157895 84.4105263,21.9710526 85.5,21.9710526 C86.4,21.9710526 87.1815789,21.8289474 87.6078947,21.6631579 L87.5605263,19.4605263 C87.2289474,19.5552632 86.9447368,19.5789474 86.4236842,19.5789474 C85.3105263,19.5789474 84.9315789,18.8684211 84.9315789,17.4473684 L84.9315789,12.3552632 L87.7026316,12.3552632 L87.7026316,10.1763158 L84.9315789,10.1763158 L84.9315789,7.21578947 L82.0657895,8.02105263 Z M91.4309211,21.9710526 C92.5440789,21.9710526 93.2546053,21.1657895 93.2546053,20.1 C93.2546053,18.9868421 92.5203947,18.2289474 91.4546053,18.2289474 C90.4125,18.2289474 89.6546053,19.0105263 89.6546053,20.1 C89.6546053,21.1657895 90.3888158,21.9710526 91.4309211,21.9710526 L91.4309211,21.9710526 Z M96.1776316,19.0578947 C96.1776316,19.9105263 96.1539474,20.9052632 96.0828947,21.7105263 L97.1013158,21.7105263 L97.1960526,19.65 L97.2434211,19.65 C98.1434211,21.2131579 99.4697368,21.9710526 101.317105,21.9710526 C103.803947,21.9710526 106.385526,19.9578947 106.385526,15.9078947 C106.385526,12.4973684 104.396053,10.0815789 101.506579,10.0815789 C99.5171053,10.0815789 98.1197368,11.0052632 97.3618421,12.4736842 L97.3144737,12.4736842 L97.3144737,4.89473684 L96.1776316,4.89473684 L96.1776316,19.0578947 Z M97.3144737,15.0552632 C97.3144737,14.6526316 97.3855263,14.3447368 97.4565789,14.0605263 C98.0013158,12.1657895 99.5881579,11.0289474 101.246053,11.0289474 C103.827632,11.0289474 105.248684,13.3263158 105.248684,15.9315789 C105.248684,18.8921053 103.756579,21.0236842 101.151316,21.0236842 C99.375,21.0236842 97.9065789,19.8868421 97.4092105,18.1578947 C97.3381579,17.8736842 97.3144737,17.5894737 97.3144737,17.3289474 L97.3144737,15.0552632 Z M118.071711,15.9078947 C118.119079,15.6947368 118.119079,15.5289474 118.119079,15.2210526 C118.119079,13.5868421 117.408553,10.0815789 113.690132,10.0815789 C110.753289,10.0815789 108.574342,12.45 108.574342,16.2394737 C108.574342,19.5789474 110.611184,21.9473684 113.879605,21.9473684 C115.869079,21.9473684 117.029605,21.45 117.455921,21.2131579 L117.171711,20.3368421 C116.532237,20.6447368 115.679605,20.9763158 114.021711,20.9763158 C111.653289,20.9763158 109.6875,19.5315789 109.6875,15.9078947 L118.071711,15.9078947 Z M109.734868,15.0078947 C109.948026,13.2552632 111.0375,11.0289474 113.548026,11.0289474 C116.295395,11.0289474 116.958553,13.4210526 116.934868,15.0078947 L109.734868,15.0078947 Z M121.231579,21.7105263 L122.368421,21.7105263 L122.368421,15.4342105 C122.368421,15.0552632 122.392105,14.6763158 122.463158,14.3447368 C122.771053,12.5210526 123.884211,11.1710526 125.447368,11.1710526 C125.660526,11.1710526 125.826316,11.1710526 125.992105,11.2184211 L125.992105,10.1289474 C125.85,10.1052632 125.684211,10.0815789 125.518421,10.0815789 C123.978947,10.0815789 122.794737,11.2184211 122.297368,12.6394737 L122.226316,12.6394737 L122.178947,10.3421053 L121.136842,10.3421053 C121.207895,11.4552632 121.231579,12.6157895 121.231579,13.7526316 L121.231579,21.7105263 Z M128.678289,21.7105263 L129.815132,21.7105263 L129.815132,4.89473684 L128.678289,4.89473684 L128.678289,21.7105263 Z M135.082895,21.7105263 L135.082895,10.3421053 L133.946053,10.3421053 L133.946053,21.7105263 L135.082895,21.7105263 Z M134.514474,6.10263158 C133.993421,6.10263158 133.590789,6.57631579 133.590789,7.09736842 C133.590789,7.61842105 133.946053,8.06842105 134.467105,8.06842105 C135.059211,8.06842105 135.414474,7.61842105 135.414474,7.09736842 C135.414474,6.55263158 135.035526,6.10263158 134.514474,6.10263158 L134.514474,6.10263158 Z M139.142763,21.7105263 L140.279605,21.7105263 L140.279605,14.6763158 C140.279605,14.3210526 140.350658,13.9421053 140.421711,13.6578947 C140.871711,12.1894737 142.245395,11.0526316 143.832237,11.0526316 C146.176974,11.0526316 146.982237,12.9236842 146.982237,14.9842105 L146.982237,21.7105263 L148.119079,21.7105263 L148.119079,14.8894737 C148.119079,10.6263158 145.229605,10.0815789 144.140132,10.0815789 C142.292763,10.0815789 140.848026,11.1236842 140.232237,12.4026316 L140.184868,12.4026316 L140.113816,10.3421053 L139.048026,10.3421053 C139.119079,11.2421053 139.142763,12.0236842 139.142763,13.0657895 L139.142763,21.7105263 Z" id="swift.berlin" fill="#737373"></path>
                </g>
            </g>
        </g>
    </g>
</svg>